# xmcd
#
# Track frame offsets:
#	150
#	25165
#	34498
#	50744
#	66026
#	76525
#	91283
#	104031
#	135232
#	148586
#	162895
#	171330
#
# Disc length: 2464 seconds
#
# Revision: 0
# Processed by: cddbd v1.4PL0 Copyright (c) Steve Scherf et al.
# Submitted via: dBpowerAMP V4.0
#
DISCID=9d099e0c
DTITLE=Andy Griffith - The Christmas Guest
DYEAR=2003
DGENRE=
TTITLE0=The Christmas Guest (Story)
TTITLE1=Joy To The World
TTITLE2=O Come, Oh Come Emmanuel/What Child Is This?
TTITLE3=Jesus' Birth In Bethlehem, Luke 2 (Story)
TTITLE4=Go Tell It On The Mountain
TTITLE5=Away In A Manger/Golden Slumber
TTITLE6=Beautiful Savior
TTITLE7=The Juggler (Story)
TTITLE8=I Wonder As I Wander
TTITLE9=Jesus Walked That Lonesome Valley
TTITLE10=Belleau Wood (Story)
TTITLE11=Silent Night
EXTD=
EXTT0=
EXTT1=
EXTT2=
EXTT3=
EXTT4=
EXTT5=
EXTT6=
EXTT7=
EXTT8=
EXTT9=
EXTT10=
EXTT11=
PLAYORDER=
